<svg version="1.1" id="Layer_1" xmlns="http://www.w3.org/2000/svg" xmlns:xlink="http://www.w3.org/1999/xlink" x="0px" y="0px" viewBox="0 0 387.9 387.9" style="enable-background:new 0 0 387.9 387.9;" xml:space="preserve">
<style type="text/css">
	.st0{fill:url(#SVGID_1_);}
	.st1{fill:url(#SVGID_2_);}
	.st2{fill:url(#SVGID_3_);}
	.st3{fill:url(#SVGID_4_);}
	.st4{fill:url(#SVGID_5_);}
	.st5{fill:url(#SVGID_6_);}
	.st6{fill:url(#SVGID_7_);}
	.st7{fill:url(#SVGID_8_);}
	.st8{fill:url(#SVGID_9_);}
	.st9{fill:url(#SVGID_10_);}
	.st10{fill:url(#SVGID_11_);}
	.st11{fill:url(#SVGID_12_);}
	.st12{fill:url(#SVGID_13_);}
	.st13{fill:url(#SVGID_14_);}
	.st14{fill:url(#SVGID_15_);}
	.st15{fill:url(#SVGID_16_);}
	.st16{fill:url(#SVGID_17_);}
	.st17{fill:url(#SVGID_18_);}
	.st18{fill:url(#SVGID_19_);}
	.st19{fill:url(#SVGID_20_);}
	.st20{fill:url(#SVGID_21_);}
	.st21{fill:url(#SVGID_22_);}
	.st22{fill:url(#SVGID_23_);}
	.st23{fill:url(#SVGID_24_);}
	.st24{fill:url(#SVGID_25_);}
	.st25{fill:url(#SVGID_26_);}
	.st26{fill:url(#SVGID_27_);}
	.st27{fill:url(#SVGID_28_);}
	.st28{fill:url(#SVGID_29_);}
	.st29{fill:url(#SVGID_30_);}
	.st30{fill:url(#SVGID_31_);}
	.st31{fill:url(#SVGID_32_);}
	.st32{fill:url(#SVGID_33_);}
	.st33{fill:url(#SVGID_34_);}
	.st34{fill:url(#SVGID_35_);}
	.st35{fill:url(#SVGID_36_);}
	.st36{fill:url(#SVGID_37_);}
	.st37{fill:url(#SVGID_38_);}
	.st38{fill:url(#SVGID_39_);}
	.st39{fill:url(#SVGID_40_);}
	.st40{fill:url(#SVGID_41_);}
	.st41{fill:url(#SVGID_42_);}
	.st42{fill:url(#SVGID_43_);}
	.st43{fill:url(#SVGID_44_);}
	.st44{fill:url(#SVGID_45_);}
	.st45{fill:url(#SVGID_46_);}
	.st46{fill:url(#SVGID_47_);}
	.st47{fill:url(#SVGID_48_);}
	.st48{fill:url(#SVGID_49_);}
	.st49{fill:url(#SVGID_50_);}
	.st50{fill:url(#SVGID_51_);}
	.st51{fill:url(#SVGID_52_);}
	.st52{fill:url(#SVGID_53_);}
	.st53{fill:url(#SVGID_54_);}
	.st54{fill:url(#SVGID_55_);}
	.st55{fill:url(#SVGID_56_);}
	.st56{fill:url(#SVGID_57_);}
	.st57{fill:url(#SVGID_58_);}
	.st58{fill:url(#SVGID_59_);}
	.st59{fill:url(#SVGID_60_);}
	.st60{fill:url(#SVGID_61_);}
	.st61{fill:url(#SVGID_62_);}
	.st62{fill:url(#SVGID_63_);}
	.st63{fill:url(#SVGID_64_);}
	.st64{fill:url(#SVGID_65_);}
	.st65{fill:url(#SVGID_66_);}
	.st66{fill:url(#SVGID_67_);}
	.st67{fill:url(#SVGID_68_);}
	.st68{fill:url(#SVGID_69_);}
	.st69{fill:url(#SVGID_70_);}
	.st70{fill:url(#SVGID_71_);}
	.st71{fill:url(#SVGID_72_);}
	.st72{fill:url(#SVGID_73_);}
	.st73{fill:url(#SVGID_74_);}
	.st74{fill:url(#SVGID_75_);}
	.st75{fill:url(#SVGID_76_);}
	.st76{fill:url(#SVGID_77_);}
	.st77{fill:url(#SVGID_78_);}
	.st78{fill:url(#SVGID_79_);}
	.st79{fill:url(#SVGID_80_);}
	.st80{fill:url(#SVGID_81_);}
	.st81{fill:url(#SVGID_82_);}
	.st82{fill:url(#SVGID_83_);}
	.st83{fill:url(#SVGID_84_);}
	.st84{fill:url(#SVGID_85_);}
	.st85{fill:url(#SVGID_86_);}
	.st86{fill:url(#SVGID_87_);}
	.st87{fill:url(#SVGID_88_);}
	.st88{fill:url(#SVGID_89_);}
	.st89{fill:url(#SVGID_90_);}
	.st90{fill:url(#SVGID_91_);}
	.st91{fill:url(#SVGID_92_);}
	.st92{fill:url(#SVGID_93_);}
	.st93{fill:url(#SVGID_94_);}
	.st94{fill:url(#SVGID_95_);}
	.st95{fill:url(#SVGID_96_);}
	.st96{fill:url(#SVGID_97_);}
	.st97{fill:url(#SVGID_98_);}
	.st98{fill:url(#SVGID_99_);}
	.st99{fill:url(#SVGID_100_);}
	.st100{fill:url(#SVGID_101_);}
	.st101{fill:url(#SVGID_102_);}
	.st102{fill:url(#SVGID_103_);}
	.st103{fill:url(#SVGID_104_);}
	.st104{fill:url(#SVGID_105_);}
	.st105{fill:url(#SVGID_106_);}
	.st106{fill:url(#SVGID_107_);}
	.st107{fill:url(#SVGID_108_);}
	.st108{fill:url(#SVGID_109_);}
	.st109{fill:url(#SVGID_110_);}
	.st110{fill:url(#SVGID_111_);}
	.st111{fill:url(#SVGID_112_);}
	.st112{fill:url(#SVGID_113_);}
	.st113{fill:url(#SVGID_114_);}
	.st114{fill:url(#SVGID_115_);}
	.st115{fill:url(#SVGID_116_);}
	.st116{fill:url(#SVGID_117_);}
	.st117{fill:url(#SVGID_118_);}
	.st118{fill:url(#SVGID_119_);}
	.st119{fill:url(#SVGID_120_);}
	.st120{fill:url(#SVGID_121_);}
	.st121{fill:url(#SVGID_122_);}
	.st122{fill:url(#SVGID_123_);}
	.st123{fill:url(#SVGID_124_);}
	.st124{fill:url(#SVGID_125_);}
	.st125{fill:url(#SVGID_126_);}
	.st126{fill:url(#SVGID_127_);}
	.st127{fill:url(#SVGID_128_);}
	.st128{fill:url(#SVGID_129_);}
	.st129{fill:url(#SVGID_130_);}
	.st130{fill:url(#SVGID_131_);}
	.st131{fill:url(#SVGID_132_);}
	.st132{fill:url(#SVGID_133_);}
	.st133{fill:url(#SVGID_134_);}
	.st134{fill:url(#SVGID_135_);}
	.st135{fill:url(#SVGID_136_);}
	.st136{fill:url(#SVGID_137_);}
	.st137{fill:url(#SVGID_138_);}
	.st138{fill:url(#SVGID_139_);}
	.st139{fill:url(#SVGID_140_);}
	.st140{fill:url(#SVGID_141_);}
	.st141{fill:url(#SVGID_142_);}
	.st142{fill:url(#SVGID_143_);}
	.st143{fill:url(#SVGID_144_);}
	.st144{fill:url(#SVGID_145_);}
	.st145{fill:url(#SVGID_146_);}
	.st146{fill:url(#SVGID_147_);}
	.st147{fill:url(#SVGID_148_);}
	.st148{fill:url(#SVGID_149_);}
	.st149{fill:url(#SVGID_150_);}
	.st150{fill:url(#SVGID_151_);}
	.st151{fill:url(#SVGID_152_);}
	.st152{fill:url(#SVGID_153_);}
	.st153{fill:url(#SVGID_154_);}
	.st154{fill:url(#SVGID_155_);}
	.st155{fill:url(#SVGID_156_);}
	.st156{fill:url(#SVGID_157_);}
	.st157{fill:url(#SVGID_158_);}
	.st158{fill:url(#SVGID_159_);}
	.st159{fill:url(#SVGID_160_);}
	.st160{fill:url(#SVGID_161_);}
	.st161{fill:url(#SVGID_162_);}
	.st162{fill:url(#SVGID_163_);}
	.st163{fill:url(#SVGID_164_);}
	.st164{fill:url(#SVGID_165_);}
	.st165{fill:url(#SVGID_166_);}
	.st166{fill:url(#SVGID_167_);}
	.st167{fill:url(#SVGID_168_);}
	.st168{fill:url(#SVGID_169_);}
	.st169{fill:url(#SVGID_170_);}
</style>
<g>
	<path d="M268.6,196.5c-1.4-0.7-2.8-1.4-4.2-2.1c3.8-7,7-14.1,5.7-24.9c4,6.5,6.7,10.5,8.9,14.8c1.3,2.7,2.9,7.3-0.1,8.4
		c-5.3,2-3.9-3.9-5.5-6.8C268.7,188,267.9,191.9,268.6,196.5z" id="id_101" style="fill: rgb(255, 255, 255);"></path>
	<path d="M125.7,183.2c-9.7-8-10-19.2-11.5-30.1c2.3,9.8,12.2,16.6,11.7,27.5C125.8,181.5,125.7,182.4,125.7,183.2z" id="id_102" style="fill: rgb(255, 255, 255);"></path>
	<path d="M192.7,61C119.7,61.1,60,120.9,60,194c0,73.5,59.8,133.1,133.6,133c73.2-0.1,132.8-59.8,132.7-132.9
		C326.2,120.6,266.3,60.8,192.7,61z M136.5,249.4c0.1,1.9-1.7,3.4-3.8,3.1c-2-0.3-2.9-2.2-3.2-4.1c-1.1-7.6-0.6-14.5,8.5-18
		C140,237,136.1,243.1,136.5,249.4z M237.8,189.2c6.1,6.1,6.5,14.3,8.7,21.8c0.5,2.3,1,4.5-0.5,6.6c-7.8-6.2-12.2-15.2-18.3-23.3
		c3,1.3,6,2.5,10.3,4.4c-3.1-7.4-3.8-14.4-5-21.2c-0.5-2.7-0.3-6.6-5.7-4.5c-3.6,1.4-1.9-2.8-2.6-4.3c-4.3-8.5-7.1-9.6-14.5-3.8
		c-6.5,5.1-15.9,8.9-12.7,20.2c-0.9,1.7-3.1,0.8-4.2,2.1c-5.1,1.5-8.6-3.6-8.5-5.7c0.2-10-7.1-15.8-11.2-23.4c-2-3.6-6.1-4-10-3.6
		c-9.3,0.9-17.6-2.4-26.8-6.5c1.5,5.2,1.7,10.6,8.8,8c4.8-1.8,6.7,2.3,7.9,4.5c1.3,2.3-0.1,5.9-2.9,8.1
		c-7.4,5.9-15.5,10.3-24.9,11.9c-3.5-6.4-6.2-13.2-9.5-19.3c2.7,7.1,4.9,15,9.3,22c3.5,3.9,7.5,0.6,11.9,0.4c-0.7,8-4.6,14-9.7,19
		c-7.3,7.1-9.8,14.9-5.4,24.5c1.9,4.3,2.7,8.4-3.4,10.5c-2,0.7-4.1,3.3-2.6,5.3c4.4,6-1.6,9.7-3.1,13.9c-2.1,5.9-11.1,5.8-14.1,0
		c-5.6-11-12.1-21.7-10.8-35.1c0.8-8.5-6.9-15.3-6-24.1c0.1-1.1-3.6-3.9-5-3.5c-10.4,2.8-8.6-4.9-8-9.8c2.8-23,7.9-45.2,24.8-62.8
		c5.3-5.5,8.4-12.6,14.1-18.2c10.6-10.5,22.8-15.8,37.2-18.5c8.9-1.7,17.4-5.4,26.5-6.1c2.8-0.2,4-1.5,6-3c4.2-3.2,6.9-2,6.6,3.7
		c8-7.9,19-7.6,28.2-6.8c28.8,2.6,52.5,16.5,72.6,38.2c-3.1,0.1-5.3-0.3-7.9,2.5c2.5,2.1,5,4.2,7.6,6.4c1,2.7,0.6,5.1-1.3,7.2
		c-1.4,3.2-5.1,3.5-7.2,5.8c-1.4,0.5-2.1,2.9-4.2,1.7c-9.3-2-5.6,4.7-4.6,7.9c4.2,15,4.1,16-9.6,21.5c-3.3,1.3-2.3,3.8-2.8,6
		c0.1,3.4-5-2.6-4.1,2.2c0.5,1.1,0.9,2.3,1.4,3.5c1,2.7,3.5,7.1,2.7,7.9c-3.7,3.3-8.5,1.5-12.8,0.5c-1.7-0.4-2.9-3.9-5.1-0.7
		C236.2,185.1,236.2,187.6,237.8,189.2z M275.1,212.8c0.9,4.8-4.4,1.5-5.5,4.3c-1.5-8.6-0.9-15.5,9.2-16.5c1.3-0.1,2.4-0.5,3.1,0.9
		c0.6,1.2,0.4,2.8-1.1,2.8C274.2,204,274.2,207.9,275.1,212.8z M253.2,207.7c-0.5-4.4,0.6-6.6,4.2-7.7c3.3-1,4.7-3.7,7-5.7
		c2.4-1.2,3.2,0.7,4.2,2.1c0.9,4.2-0.8,7.9-2.1,11.6c-0.8,2.3-1.5,6.7-5.1,4.9C258.7,211.6,253.9,213.7,253.2,207.7z M294.7,256.5
		c-3.4,4.5-7.5,8.8-12.2,1.9c-2.3-3.3-4.3-2.5-5.9-1c-5.3,4.9-12.1,6.3-19.3,9.9c0.5-4.4,0.4-7.6-0.4-11.1
		c-1.2-5.2,0.1-9.8,5.6-12.4c8.4-4,13.1-12.4,20.1-18.2c3.4-2.8,5.3-1.4,6.6-0.1c1.5,1.5-0.9,6.5,3.4,5.9c3.8-0.5,1.6-5.4,3.4-8
		C300.4,234.8,302.7,245.9,294.7,256.5z M294.8,217.5c-2.2-4.5-8.7-5.4-9.7-14.2c4.3,7.4,9.7,2.2,13.9,5.9c2.9,2.6,4.5,5.2,3.1,8.1
		C301.7,218.4,295.3,218.5,294.8,217.5z" id="id_103" style="fill: rgb(255, 255, 255);"></path>
	<path d="M251.3,172.1c-3.5-1.6-5-3.9-1.2-6.5c5.9-4,0.8,6.1,5.2,4.3C254.7,171.9,253,172,251.3,172.1z" id="id_104" style="fill: rgb(255, 255, 255);"></path>
</g>
</svg>