<svg version="1.1" xmlns="http://www.w3.org/2000/svg" xmlns:xlink="http://www.w3.org/1999/xlink" x="0px" y="0px" width="20" height="20" viewBox="0 0 20 20" xml:space="preserve">
    <g transform="translate(-30 -440)">
        <g xmlns="http://www.w3.org/2000/svg" xmlns:xlink="http://www.w3.org/1999/xlink" id="spanner-hammer-mini">
		<polygon points="37.07,445.008 39.899,442.179 35.656,440.765 34.242,442.179 33.535,441.472 31.414,443.593 32.121,444.3     30,446.422 32.828,449.25 34.949,447.129 37.547,449.727 39.668,447.605   " id="id_101" style="fill: rgb(255, 255, 255);"></polygon>
		<path d="M46.616,458.796c0.586,0.586,1.536,0.586,2.122,0c0.585-0.586,0.586-1.535,0-2.121l-5.534-5.534l-2.122,2.121    L46.616,458.796z" id="id_102" style="fill: rgb(255, 255, 255);"></path>
		<path d="M48.984,446.775c0.985-0.986,1.248-2.41,0.813-3.642l-1.52,1.521c-0.586,0.586-1.536,0.585-2.122,0    c-0.585-0.586-0.586-1.536,0-2.122l1.521-1.521c-1.231-0.436-2.656-0.172-3.642,0.813c-0.985,0.986-1.249,2.41-0.813,3.643    l-2.846,2.845l-2.121,2.121l-6.24,6.241c-0.586,0.586-0.586,1.535,0,2.121c0.585,0.586,1.535,0.586,2.121,0l6.24-6.241    l2.122-2.121l2.845-2.845C46.574,448.024,47.998,447.761,48.984,446.775z" id="id_103" style="fill: rgb(255, 255, 255);"></path>
	</g>
	
    </g>
</svg>