<svg width="24" height="24" viewBox="0 0 24 24" fill="none" xmlns="http://www.w3.org/2000/svg">
<path fill-rule="evenodd" clip-rule="evenodd" d="M7.68247 3C7.31778 3 6.98201 3.19853 6.80626 3.51808L2.40625 11.5181C2.24121 11.8182 2.24121 12.1818 2.40625 12.4819L6.80625 20.4819C6.98201 20.8015 7.31778 21 7.68247 21H16.3174C16.6821 21 17.0178 20.8015 17.1936 20.4819L21.5936 12.4819C21.7586 12.1818 21.7586 11.8182 21.5936 11.5181L17.1936 3.51808C17.0178 3.19853 16.6821 3 16.3174 3H7.68247ZM5.05382 2.55424C5.58108 1.5956 6.5884 1 7.68247 1H16.3174C17.4115 1 18.4188 1.5956 18.946 2.55424L23.346 10.5542C23.8412 11.4545 23.8412 12.5455 23.346 13.4458L18.946 21.4458C18.4188 22.4044 17.4115 23 16.3174 23H7.68247C6.5884 23 5.58108 22.4044 5.05382 21.4458L0.653823 13.4458C0.158686 12.5455 0.158687 11.4545 0.653823 10.5542L5.05382 2.55424ZM11.9999 9C10.3431 9 8.99993 10.3431 8.99993 12C8.99993 13.6569 10.3431 15 11.9999 15C13.6568 15 14.9999 13.6569 14.9999 12C14.9999 10.3431 13.6568 9 11.9999 9ZM6.99993 12C6.99993 9.23858 9.2385 7 11.9999 7C14.7614 7 16.9999 9.23858 16.9999 12C16.9999 14.7614 14.7614 17 11.9999 17C9.2385 17 6.99993 14.7614 6.99993 12Z" fill="#ffffff" id="id_101"></path>
</svg>